<svg clip-rule="evenodd" fill-rule="evenodd" stroke-linejoin="round" stroke-miterlimit="2" viewBox="0 0 1720 400" xmlns="http://www.w3.org/2000/svg"><path d="m0 0h1720v400h-1720z" fill="none"/><g fill-rule="nonzero"><path d="m383.009 261.79v-124.018h66.438c7.087 0 13.613 1.683 19.578 5.049 5.964 3.366 10.718 7.943 14.262 13.731 3.543 5.787 5.315 22.224 5.315 29.311 0 7.323-1.92 13.996-5.758 20.02-3.839 6.024-8.888 10.807-15.148 14.351-6.26 3.543-13.229 5.315-20.906 5.315h-44.647v36.241zm19.134-54.667h43.407c4.134 0 7.943-.974 11.427-2.923s6.26-4.547 8.327-7.795c2.067-3.249 3.1-6.762 3.1-10.542 0-3.661-1.033-16.969-3.1-19.921-2.067-2.953-4.843-5.316-8.327-7.087-3.484-1.772-7.293-2.658-11.427-2.658h-43.407z"/><path d="m514.675 261.79v-124.018h66.97c7.323 0 13.996 1.712 20.02 5.138 6.024 3.425 10.866 8.031 14.528 13.819 3.661 5.787 5.492 22.283 5.492 29.488 0 7.323-1.949 13.967-5.846 19.932-3.898 5.965-9.066 10.748-15.503 14.351-6.437 3.602-13.494 5.403-21.171 5.403h-45.356v35.887zm89.825 0-39.155-45.985 20.198-4.43 42.697 50.592zm-70.691-54.312h44.647c4.134 0 7.973-.975 11.516-2.924s6.348-4.547 8.415-7.795 3.101-6.762 3.101-10.542c0-3.779-1.093-17.175-3.278-20.187s-5.167-5.404-8.947-7.175c-3.779-1.772-7.854-2.658-12.224-2.658h-43.23z"/><path d="m655.889 137.772h19.134v124.018h-19.134z"/><path d="m763.647 263.562c-8.268 0-15.886-.886-22.855-2.658s-13.347-4.429-19.134-7.973c-5.788-3.543-11.044-8.031-15.768-13.464l12.402-15.768c7.086 8.031 14.262 13.819 21.526 17.362 7.263 3.544 15.443 5.315 24.537 5.315 5.67 0 11.044-.738 16.123-2.214 5.079-1.477 9.242-3.632 12.49-6.467s4.872-6.378 4.872-10.63c0-2.717-.826-5.02-2.48-6.91s-3.839-3.484-6.555-4.783c-2.717-1.3-5.758-2.363-9.124-3.189-3.367-.827-6.733-1.506-10.099-2.038-3.366-.531-6.467-1.033-9.301-1.506-7.56-1.063-14.292-2.569-20.198-4.518-5.905-1.948-10.955-4.37-15.148-7.263-4.193-2.894-7.382-6.408-9.567-10.542s-3.277-8.858-3.277-14.174c0-5.551 1.299-10.571 3.897-15.059 2.599-4.488 6.26-8.297 10.985-11.427 4.724-3.13 10.217-5.522 16.477-7.176 6.259-1.653 13.051-2.48 20.374-2.48 7.677 0 14.734.827 21.172 2.48 6.437 1.654 12.165 4.105 17.185 7.353s9.183 7.234 12.49 11.959l-12.933 13.819c-3.071-4.016-6.585-7.382-10.541-10.099-3.957-2.716-8.298-4.783-13.022-6.201-4.725-1.417-9.686-2.126-14.883-2.126-5.905 0-11.161.709-15.768 2.126-4.606 1.418-8.267 3.396-10.984 5.936-2.717 2.539-4.075 5.58-4.075 9.124 0 3.071.797 5.699 2.392 7.884 1.594 2.185 3.868 4.016 6.821 5.492s6.555 2.746 10.807 3.809 9.095 1.949 14.528 2.658c6.851 1.063 13.376 2.362 19.577 3.897 6.201 1.536 11.664 3.544 16.388 6.024 4.725 2.481 8.445 5.64 11.162 9.479 2.716 3.838 4.075 8.592 4.075 14.262 0 8.031-2.244 15.03-6.733 20.994-4.488 5.965-10.807 10.571-18.957 13.819-8.149 3.249-17.776 4.873-28.878 4.873z"/><path d="m847.625 261.79v-124.018h18.78l53.505 71.044-7.441-.177 53.505-70.867h18.425v124.018h-19.134v-52.088c0-10.039.236-19.37.709-27.992.472-8.623 1.417-17.304 2.834-26.044l2.126 7.087-49.075 63.426h-11.694l-48.898-63.249 1.949-7.264c1.417 8.622 2.362 17.215 2.834 25.778.473 8.563.709 17.982.709 28.258v52.088z"/><path d="m1007.79 261.79 57.04-124.018h21.62l56.69 124.018h-20.9l-37.92-82.384c-.82-1.889-1.77-4.045-2.83-6.466-1.07-2.422-2.13-4.931-3.19-7.53-1.06-2.598-2.1-5.197-3.1-7.795-1.01-2.599-1.86-5.079-2.57-7.441l5.14-.178c-.95 2.599-1.92 5.227-2.93 7.884-1 2.658-2.03 5.256-3.1 7.796-1.06 2.539-2.12 5.02-3.19 7.441-1.06 2.421-2.12 4.754-3.18 6.998l-37.56 81.675zm18.98-21.587 7.44-18.426h83.74l4.43 18.426z"/><path d="m1204.46 261.79v-124.018h66.44c7.09 0 13.61 1.683 19.58 5.049 5.96 3.366 10.72 7.943 14.26 13.731 3.54 5.787 5.32 22.224 5.32 29.311 0 7.323-1.92 13.996-5.76 20.02s-8.89 10.807-15.15 14.351c-6.26 3.543-13.23 5.315-20.91 5.315h-44.64v36.241zm19.14-54.667h43.4c4.14 0 7.95-.974 11.43-2.923s6.26-4.547 8.33-7.795c2.07-3.249 3.1-6.762 3.1-10.542 0-3.661-1.03-16.969-3.1-19.921-2.07-2.953-4.85-5.316-8.33-7.087-3.48-1.772-7.29-2.658-11.43-2.658h-43.4z"/><path d="m1396.48 263.562c-10.28 0-19.73-1.624-28.35-4.873-8.62-3.248-16.12-7.765-22.5-13.553-6.38-5.787-11.31-12.549-14.8-20.286-3.48-7.736-5.22-16.093-5.22-25.069 0-8.977 1.74-17.333 5.22-25.07 3.49-7.736 8.42-14.498 14.8-20.285 6.38-5.788 13.88-10.306 22.5-13.554s18.07-4.872 28.35-4.872c10.27 0 19.72 1.624 28.34 4.872s16.12 7.766 22.5 13.554c6.38 5.787 11.34 12.549 14.88 20.285 3.55 7.737 5.32 16.093 5.32 25.07 0 8.976-1.77 17.333-5.32 25.069-3.54 7.737-8.5 14.499-14.88 20.286-6.38 5.788-13.88 10.305-22.5 13.553-8.62 3.249-18.07 4.873-28.34 4.873zm0-18.603c7.55 0 14.46-1.152 20.72-3.455s11.7-5.492 16.3-9.567c4.61-4.075 8.18-8.858 10.72-14.351 2.54-5.492 3.81-11.427 3.81-17.805s-1.27-12.313-3.81-17.806c-2.54-5.492-6.11-10.275-10.72-14.35-4.6-4.075-10.04-7.264-16.3-9.567-6.26-2.304-13.17-3.455-20.72-3.455-7.56 0-14.47 1.151-20.73 3.455-6.26 2.303-11.7 5.462-16.3 9.478-4.61 4.016-8.15 8.77-10.63 14.262s-3.72 11.487-3.72 17.983c0 6.378 1.24 12.343 3.72 17.894s6.02 10.335 10.63 14.351c4.6 4.015 10.04 7.175 16.3 9.478s13.17 3.455 20.73 3.455z"/><path d="m1491.4 261.79v-124.018h66.44c7.08 0 13.61 1.683 19.57 5.049 5.97 3.366 10.72 7.943 14.27 13.731 3.54 5.787 5.31 22.224 5.31 29.311 0 7.323-1.92 13.996-5.76 20.02s-8.88 10.807-15.14 14.351c-6.26 3.543-13.23 5.315-20.91 5.315h-44.65v36.241zm19.13-54.667h43.41c4.13 0 7.94-.974 11.43-2.923 3.48-1.949 6.26-4.547 8.32-7.795 2.07-3.249 3.1-6.762 3.1-10.542 0-3.661-1.03-16.969-3.1-19.921-2.06-2.953-4.84-5.316-8.32-7.087-3.49-1.772-7.3-2.658-11.43-2.658h-43.41z"/></g><path d="m210.725 112.98 66.365 87.02-66.365 87.02-66.366-87.02z" fill="#fff"/><path d="m210.725 234.157v48.911l63.35-83.068z" fill="#ff71ff"/><path d="m210.725 234.157v48.911l-63.351-83.068z" fill="#ffdd7b"/><path d="m210.725 234.157v-128.383l63.35 94.226z" fill="#9fefff"/><path d="m210.725 84.985 87.715 115.015-87.715 115.015-87.716-115.015zm0 31.948s-63.351 83.067-63.351 83.067l63.351 83.067s63.35-83.067 63.35-83.067z"/></svg>